<svg xmlns="http://www.w3.org/2000/svg" viewBox="0 0 704.68 185.21"><defs><style>.cls-1{fill:#fff;}</style></defs><g id="Layer_2" data-name="Layer 2"><g id="图层_1" data-name="图层 1"><path class="cls-1" d="M143.48,86.32a7.64,7.64,0,1,0-7.63-7.63A7.64,7.64,0,0,0,143.48,86.32Z"/><path class="cls-1" d="M101.76,46.81a7.64,7.64,0,1,0-7.63-7.64A7.64,7.64,0,0,0,101.76,46.81Z"/><path class="cls-1" d="M51.09,27.09a7.63,7.63,0,1,0-7.63,7.63A7.64,7.64,0,0,0,51.09,27.09Z"/><path class="cls-1" d="M49.7,120.21a7.63,7.63,0,1,0,7.63,7.63A7.64,7.64,0,0,0,49.7,120.21Z"/><path class="cls-1" d="M175.53,0H9.68A9.68,9.68,0,0,0,0,9.69V175.53a9.68,9.68,0,0,0,9.68,9.68H94.14V180L49.7,148.36h0a20.56,20.56,0,1,1,15.18-6.74L94.14,164V108.21C88.89,105,44.54,77.69,43.46,75.38s-5.28-28.46-5.28-28.46l0,0A20.52,20.52,0,1,1,54,44.69h0s1.66,19,2.89,21.48C58,68.46,89.77,90.43,94.14,93.44V58.22a20.49,20.49,0,1,1,13.67.57v92.78L136.65,122V98a20.48,20.48,0,1,1,12.95.26c.14,7.64.43,26.88-.06,29.57-.57,3.15-37,39.87-41.73,44.61v12.76h67.72a9.68,9.68,0,0,0,9.68-9.68V9.69A9.68,9.68,0,0,0,175.53,0Z"/><polygon class="cls-1" points="288.86 152.4 288.86 81.51 305.28 81.51 305.28 180.72 278.54 180.72 241.84 105.37 241.84 180.51 225.67 180.51 225.67 81.3 253.95 81.3 288.86 152.4"/><path class="cls-1" d="M334.14,148.6q.48,5.63,3.89,14.19t12.48,9q11.06,0,17.32-2.79t8.17-4.65L373,176.67q0,1.1-6.27,2.88a59,59,0,0,1-16,1.8q-3.84,0-6-.21-15.69-1.14-23-8.91t-7.45-24.93q0-19.64,8.29-28.78t24.3-9.31q19.23,0,26.07,10,5.83,8.27,5.84,22.35c0,1.77-.05,3.26-.16,4.49s-.2,2.09-.26,2.57Zm14.69-30.45q-14.7.46-14.69,21h31.28q0-21-16.59-21"/><polygon class="cls-1" points="384.21 109.63 407.28 109.63 420.01 129.64 433.81 109.63 447.82 109.63 426.71 139.66 452.35 180.51 429.07 180.51 414.18 156.86 397.59 180.51 382.68 180.51 407.07 146.26 384.21 109.63"/><path class="cls-1" d="M537.55,110q0,12.21-5,18.79a23.33,23.33,0,0,1-12.85,8.7,71.56,71.56,0,0,1-18.66,2.13h-20.7v40.85H457.5V81.3h46.19q15.84,0,24.69,6.29T537.55,110M516,109.42q-.16-7.55-4.24-11.64a14.39,14.39,0,0,0-10.66-4.11h-20.7v33.84h20.07q7.68,0,11.6-3.91T516,109.42"/><path class="cls-1" d="M615.17,175c0,.68-2.6,1.87-7.78,3.56a67.34,67.34,0,0,1-19,2.78q-26.11,0-36.46-13.07t-10.34-40.77q.52-14.92,4.65-25.11a32.2,32.2,0,0,1,13.56-15.86q9.43-5.64,25.39-5.87a93.49,93.49,0,0,1,17.13,1.44q7.62,1.42,10.87,2.42l4.33,16.78a56.94,56.94,0,0,0-10-4.78,47.29,47.29,0,0,0-17.37-2.86q-14,0-18.78,9.66t-4.76,24.18a133.09,133.09,0,0,0,1.28,19.69,33,33,0,0,0,5.69,14.61q4.39,6.08,12.87,6.6a62.62,62.62,0,0,0,16.59-1.85,37.38,37.38,0,0,0,10.22-4.18,19.49,19.49,0,0,0,3.26-2.28h0Z"/><path class="cls-1" d="M671.71,81.3q29.34,0,29.34,23.65,0,14.07-8,18.63t-13.34,4.55q25,2.38,25,23.85-.27,16.58-9.09,22.56t-23.24,6H625.54V81.3ZM684,106q-1.1-12.31-14.85-12.32H648.38v29h20.07Q684,122.62,684,106m-13.8,62.15q16,0,16-17.19,0-7.71-4.72-11.86a17.29,17.29,0,0,0-11.87-4.15H648.38v33.2Z"/></g></g></svg>