<svg xmlns="http://www.w3.org/2000/svg" xmlns:xlink="http://www.w3.org/1999/xlink" viewBox="0 0 176.59 172.75"><defs><style>.cls-1{fill:#f24c8f;}.cls-2{fill:#2197d8;}.cls-3{fill:#2ba5f7;}.cls-4{fill:#e09b2d;}.cls-5{fill:#f7b239;}.cls-6{fill:#cc1b5b;}.cls-7{fill:#fff;}.cls-8{fill:url(#linear-gradient);}.cls-9{fill:url(#linear-gradient-2);}.cls-10{fill:url(#linear-gradient-3);}.cls-11{fill:url(#linear-gradient-4);}.cls-12{fill:url(#linear-gradient-5);}</style><linearGradient id="linear-gradient" x1="0.03" y1="-266.07" x2="1" y2="-266.07" gradientTransform="translate(-31883.6 37.63) rotate(90) scale(120.29)" gradientUnits="userSpaceOnUse"><stop offset="0" stop-color="#263f8e"/><stop offset="1" stop-color="#25a2d9"/></linearGradient><linearGradient id="linear-gradient-2" x1="0.03" y1="-265.86" x2="1" y2="-265.86" xlink:href="#linear-gradient"/><linearGradient id="linear-gradient-3" x1="0.03" y1="-265.56" x2="1" y2="-265.56" xlink:href="#linear-gradient"/><linearGradient id="linear-gradient-4" x1="0.03" y1="-265.59" x2="1" y2="-265.59" xlink:href="#linear-gradient"/><linearGradient id="linear-gradient-5" x1="0.03" y1="-265.81" x2="1" y2="-265.81" xlink:href="#linear-gradient"/></defs><g id="Layer_2" data-name="Layer 2"><path class="cls-1" d="M162.39,20.39a13,13,0,0,0-1.78-.28,12,12,0,0,0-9.17,3.16,13.46,13.46,0,0,0-7.52-6.07,10,10,0,0,1,18.47,3.19Z" transform="translate(0 -7.25)"/><path class="cls-2" d="M171.59,33.08a12,12,0,0,1-18.12,9.35,24.18,24.18,0,0,0,.76-3.66,27.88,27.88,0,0,0-.62-10.52c-.16-.59-.35-1.17-.56-1.72a18,18,0,0,0-1.61-3.26c.23-.21.47-.42.72-.61a12,12,0,0,1,8.45-2.55,13,13,0,0,1,1.78.28A12,12,0,0,1,170.48,27,11.84,11.84,0,0,1,171.59,33.08Z" transform="translate(0 -7.25)"/><path class="cls-3" d="M170.45,28.52a12,12,0,0,1-13,11,11.65,11.65,0,0,1-3.25-.73,10.71,10.71,0,0,1-1.9-.91,27.9,27.9,0,0,0,.72-11.33,22.44,22.44,0,0,0-.58-2.85c-.1-.34-.2-.69-.31-1a12,12,0,0,1,8.45-2.55,13,13,0,0,1,1.78.28A12,12,0,0,1,170.48,27,10.34,10.34,0,0,1,170.45,28.52Z" transform="translate(0 -7.25)"/><path class="cls-4" d="M154.43,36.37a25.51,25.51,0,0,1-1,6.06c-1,3.42-2.77,6.09-5.31,6.78-5.76,1.58-13.28-7.55-15.39-15.24a17.5,17.5,0,0,1,.08-10c1.12-3.4,3.41-6,6.52-6.84a8.57,8.57,0,0,1,4.55,0,13.46,13.46,0,0,1,7.52,6.07,18.69,18.69,0,0,1,2.17,5A26.82,26.82,0,0,1,154.43,36.37Z" transform="translate(0 -7.25)"/><path class="cls-5" d="M154.43,36.37c-.06.25-.12.49-.19.73-1,3.42-2.78,6.09-5.32,6.79-5.76,1.58-13.28-7.55-15.39-15.25a19,19,0,0,1-.68-4.63c1.12-3.4,3.41-6,6.52-6.84a8.57,8.57,0,0,1,4.55,0,13.46,13.46,0,0,1,7.52,6.07,18.69,18.69,0,0,1,2.17,5A26.82,26.82,0,0,1,154.43,36.37ZM170.6,15.12a1,1,0,0,1-.95-.95v-1a.95.95,0,0,1,1.9,0v1A1,1,0,0,1,170.6,15.12Zm0,5.1a.94.94,0,0,1-.95-.95v-1a1,1,0,1,1,1.9,0v1A.94.94,0,0,1,170.6,20.22Zm3.05-3h-1a1,1,0,1,1,0-1.9h1a.95.95,0,1,1,0,1.9Zm-5.1,0h-1a1,1,0,1,1,0-1.9h1a.95.95,0,1,1,0,1.9Z" transform="translate(0 -7.25)"/><path class="cls-3" d="M139.1,57.39a.94.94,0,0,1-.67-.28,2.84,2.84,0,0,1-.85-1.85,1.09,1.09,0,0,0-1.09-1.09,2.87,2.87,0,0,1-1.84-.86,2.91,2.91,0,0,1-.86-1.85,1,1,0,0,0-.32-.77,1,1,0,0,0-.76-.32,2.89,2.89,0,0,1-1.85-.86,2.84,2.84,0,0,1-.85-1.85,1,1,0,0,0-.32-.77,1,1,0,0,1,0-1.34,1,1,0,0,1,1.35,0,2.89,2.89,0,0,1,.85,1.85A1.09,1.09,0,0,0,133,48.49a3,3,0,0,1,2.71,2.71A1.08,1.08,0,0,0,136,52a1,1,0,0,0,.77.32,2.91,2.91,0,0,1,1.85.86,2.94,2.94,0,0,1,.85,1.85,1,1,0,0,0,.32.77,1,1,0,0,1-.68,1.62Z" transform="translate(0 -7.25)"/><path class="cls-1" d="M170.05,51.09c.7-1.15,1.56-.62,2.26-1.76s-.17-1.67.53-2.82,1.57-.61,2.26-1.76-.16-1.67.54-2.81" transform="translate(0 -7.25)"/><path class="cls-6" d="M170.05,52a1,1,0,0,1-.5-.14.94.94,0,0,1-.31-1.31,2.87,2.87,0,0,1,1.59-1.27,1.08,1.08,0,0,0,.8-1.3,2.85,2.85,0,0,1,.4-2,2.88,2.88,0,0,1,1.59-1.27c.35-.14.49-.19.67-.49a1,1,0,0,0,.13-.82,2.9,2.9,0,0,1,.4-2,1,1,0,1,1,1.63,1,1,1,0,0,0-.13.82,3,3,0,0,1-2,3.27,1.06,1.06,0,0,0-.67.49,1.09,1.09,0,0,0-.13.82,3,3,0,0,1-2,3.26c-.35.14-.49.19-.67.49A.94.94,0,0,1,170.05,52Z" transform="translate(0 -7.25)"/><path d="M170.08,24.43a13,13,0,0,0-6.88-4.81,10.92,10.92,0,0,0-19.73-3.51,9.45,9.45,0,0,0-4.36.14,10.54,10.54,0,0,0-6.88,6.68,18.1,18.1,0,0,0-.38,11.29,28.9,28.9,0,0,0,6.55,11.5c2.85,3,5.77,4.63,8.39,4.63a8.1,8.1,0,0,0,.86-.06c1,2,4.15,8.65,4.34,15.36,0,.78-.07,1.57-.07,2.37a1,1,0,0,0,.92,1h0a.94.94,0,0,0,.94-.87,21.91,21.91,0,0,0,.07-2.43,60,60,0,0,1,5.31-20.62h.42a13,13,0,0,0,10.46-20.63ZM153.32,13.14a9,9,0,0,1,7.78,6.06l-.41,0a13,13,0,0,0-9.05,2.7,15.86,15.86,0,0,0-3.2-3.38,12.89,12.89,0,0,0-3.05-1.78A9,9,0,0,1,153.32,13.14ZM139.79,44.42a27.17,27.17,0,0,1-6.1-10.7c-2-7.18.69-14.19,5.93-15.63a7,7,0,0,1,1.94-.26A9.35,9.35,0,0,1,147.27,20a16.11,16.11,0,0,1,5.42,8.52,27.21,27.21,0,0,1,.22,12.32c-.92,4.13-2.74,6.86-5,7.48a4.42,4.42,0,0,1-1.1.14C144.74,48.44,142.24,47,139.79,44.42Zm13.06,14.19a46.22,46.22,0,0,0-3.35-8.9c1.93-1,3.49-3,4.53-5.91a12.67,12.67,0,0,0,3.17,1A63.52,63.52,0,0,0,152.85,58.61ZM170.65,33a11.09,11.09,0,0,1-16.06,9c.06-.24.12-.48.17-.73A28.65,28.65,0,0,0,154.53,28a20,20,0,0,0-1.86-4.53,11.09,11.09,0,0,1,7.86-2.41,10.18,10.18,0,0,1,1.64.26A11.06,11.06,0,0,1,170.65,33Z" transform="translate(0 -7.25)"/><path class="cls-5" d="M43.68,10l2.17,4.4,4.86.71-3.52,3.42L48,23.41l-4.34-2.28-4.35,2.28.83-4.84-3.52-3.42,4.86-.71Z" transform="translate(0 -7.25)"/><path class="cls-3" d="M20.8,22.76l3.9,3,4.67-1.53-1.62,4.63,2.89,4-4.91-.12-2.87,4L21.45,32l-4.68-1.5,4-2.8Z" transform="translate(0 -7.25)"/><path class="cls-1" d="M66.56,22.76l-3.91,3L58,24.21l1.63,4.63-2.9,4,4.91-.12,2.87,4L65.91,32l4.67-1.5-4-2.8Z" transform="translate(0 -7.25)"/><path class="cls-6" d="M56.69,10a.91.91,0,0,1-.91-.92V8.16a.91.91,0,1,1,1.82,0v.95A.92.92,0,0,1,56.69,10Zm0,4.86a.91.91,0,0,1-.91-.91V13a.91.91,0,0,1,1.82,0v1A.91.91,0,0,1,56.69,14.89ZM59.6,12h-1a.91.91,0,1,1,0-1.82h1a.91.91,0,0,1,0,1.82Zm-4.87,0h-.95a.91.91,0,1,1,0-1.82h.95a.91.91,0,1,1,0,1.82Z" transform="translate(0 -7.25)"/><path class="cls-3" d="M27.35,14.38a.92.92,0,0,1-.92-.91v-1a.92.92,0,1,1,1.83,0v1A.91.91,0,0,1,27.35,14.38Zm0,4.87a.92.92,0,0,1-.92-.92v-.95a.92.92,0,0,1,1.83,0v.95A.92.92,0,0,1,27.35,19.25Zm2.91-2.91h-1a.92.92,0,1,1,0-1.83h1a.92.92,0,0,1,0,1.83Zm-4.87,0h-.95a.92.92,0,0,1,0-1.83h.95a.92.92,0,0,1,0,1.83Z" transform="translate(0 -7.25)"/><path d="M39.33,24.33a.92.92,0,0,1-.9-1.07l.75-4.37L36,15.8a.91.91,0,0,1-.23-.94.9.9,0,0,1,.73-.62l4.39-.63,2-4a.91.91,0,0,1,.82-.51.93.93,0,0,1,.82.51l2,4,4.38.63a.91.91,0,0,1,.51,1.56l-3.17,3.09.74,4.37a.91.91,0,0,1-1.32,1l-3.92-2.06-3.92,2.06A1,1,0,0,1,39.33,24.33Zm4.35-4.11a.9.9,0,0,1,.42.1l2.71,1.42-.52-3a.91.91,0,0,1,.27-.81l2.19-2.14-3-.44a.9.9,0,0,1-.69-.5L43.68,12.1l-1.36,2.74a.9.9,0,0,1-.68.5l-3,.44,2.19,2.14a.93.93,0,0,1,.26.81l-.52,3,2.71-1.42A.94.94,0,0,1,43.68,20.22ZM22.86,37.59h-.15a.92.92,0,0,1-.72-.64l-1.28-4.25-4.22-1.35a.91.91,0,0,1-.62-.74.92.92,0,0,1,.38-.88L19.9,27.2l0-4.44a.93.93,0,0,1,.51-.82.91.91,0,0,1,1,.1l3.53,2.68,4.21-1.38a.91.91,0,0,1,1.14,1.17l-1.46,4.18,2.61,3.58a.88.88,0,0,1,.07,1,.9.9,0,0,1-.83.49l-4.43-.1L23.6,37.21A.91.91,0,0,1,22.86,37.59Zm-4-7.42,2.91.93a.92.92,0,0,1,.59.61l.88,2.93L25,32.16a.94.94,0,0,1,.77-.38l3.06.07L27,29.38a.93.93,0,0,1-.13-.84l1-2.89-2.91,1a.91.91,0,0,1-.84-.15l-2.43-1.85v3.06a.87.87,0,0,1-.39.75Zm45.67,7.42a.92.92,0,0,1-.74-.38l-2.59-3.59-4.43.1a.91.91,0,0,1-.83-.49.92.92,0,0,1,.07-1l2.62-3.58-1.47-4.18a.93.93,0,0,1,.21-.94.92.92,0,0,1,.94-.23l4.21,1.38L66,22a.91.91,0,0,1,1-.1.93.93,0,0,1,.51.82V27.2l3.64,2.52a.9.9,0,0,1,.38.88.91.91,0,0,1-.62.74l-4.22,1.35-1.27,4.25a.92.92,0,0,1-.72.64Zm-2.87-5.81a.91.91,0,0,1,.74.38l1.79,2.48L65,31.71a.94.94,0,0,1,.6-.61l2.91-.93L66,28.42a.92.92,0,0,1-.39-.75V24.61L63.2,26.46a.89.89,0,0,1-.83.15l-2.91-1,1,2.89a.93.93,0,0,1-.12.84l-1.81,2.47,3.06-.07Z" transform="translate(0 -7.25)"/><path class="cls-5" d="M46.92,59h-.1A.93.93,0,0,1,46,58a29,29,0,0,1,6.78-15.5,30.51,30.51,0,0,1,5.76-5.4.91.91,0,1,1,1,1.52,29.27,29.27,0,0,0-5.41,5.1A27.26,27.26,0,0,0,47.82,58.2.9.9,0,0,1,46.92,59Z" transform="translate(0 -7.25)"/><path class="cls-6" d="M40.44,59a.92.92,0,0,1-.91-.82C38.24,45.72,27.9,38.7,27.79,38.63a.92.92,0,0,1-.25-1.27.9.9,0,0,1,1.26-.25,30.17,30.17,0,0,1,5.76,5.4A29,29,0,0,1,41.35,58a.93.93,0,0,1-.82,1Z" transform="translate(0 -7.25)"/><path class="cls-3" d="M43.68,53.35a.92.92,0,0,1-.92-.91V28.69a.92.92,0,0,1,1.83,0V52.44A.91.91,0,0,1,43.68,53.35Z" transform="translate(0 -7.25)"/><circle class="cls-3" cx="64.67" cy="11.03" r="0.91"/><circle class="cls-6" cx="49.77" cy="30.02" r="0.91"/><circle class="cls-5" cx="37.1" cy="23.39" r="0.91"/><path class="cls-3" d="M45.8,153.2a.92.92,0,0,1-.91-.92v-1.07a.92.92,0,0,1,1.83,0v1.07A.92.92,0,0,1,45.8,153.2Zm0,5.49a.91.91,0,0,1-.91-.91V156.7a.92.92,0,0,1,1.83,0v1.08A.92.92,0,0,1,45.8,158.69Zm3.29-3.28H48a.92.92,0,0,1,0-1.83h1.08a.92.92,0,0,1,0,1.83Zm-5.5,0H42.52a.92.92,0,1,1,0-1.83h1.07a.92.92,0,1,1,0,1.83ZM38.36,135.7a.92.92,0,0,1-.91-.92V134a.92.92,0,1,1,1.83,0v.82A.92.92,0,0,1,38.36,135.7Zm0,4.22a.91.91,0,0,1-.91-.91v-.83a.92.92,0,0,1,1.83,0V139A.91.91,0,0,1,38.36,139.92Zm2.53-2.52h-.83a.92.92,0,0,1,0-1.83h.83a.92.92,0,0,1,0,1.83Zm-4.23,0h-.83a.92.92,0,0,1,0-1.83h.83a.92.92,0,0,1,0,1.83Z" transform="translate(0 -7.25)"/><path class="cls-6" d="M47.13,144.39a2.62,2.62,0,1,1,2.61-2.62A2.62,2.62,0,0,1,47.13,144.39Zm0-3.4a.79.79,0,1,0,.78.78A.78.78,0,0,0,47.13,141Z" transform="translate(0 -7.25)"/><path class="cls-5" d="M26.72,139.89a2.62,2.62,0,1,1,2.61-2.62A2.62,2.62,0,0,1,26.72,139.89Zm0-3.4a.79.79,0,1,0,.78.78A.78.78,0,0,0,26.72,136.49Z" transform="translate(0 -7.25)"/><circle class="cls-5" cx="16.57" cy="138.25" r="0.91"/><circle class="cls-6" cx="25.53" cy="135.69" r="0.91"/><circle class="cls-3" cx="36.5" cy="137.7" r="0.91"/><circle class="cls-5" cx="36.5" cy="156.9" r="0.91"/><path class="cls-6" d="M30.16,145.43a.87.87,0,0,1-.49-.14.91.91,0,0,1-.29-1.26,34.31,34.31,0,0,0,2.42-4.54.92.92,0,0,1,1.68.73A36.8,36.8,0,0,1,30.93,145,.9.9,0,0,1,30.16,145.43Z" transform="translate(0 -7.25)"/><path class="cls-3" d="M21.58,155.92a.87.87,0,0,1-.66-.29.91.91,0,0,1,0-1.29,59.77,59.77,0,0,0,6.16-7,.91.91,0,1,1,1.46,1.1,61.67,61.67,0,0,1-6.37,7.26A.94.94,0,0,1,21.58,155.92Z" transform="translate(0 -7.25)"/><path class="cls-5" d="M27.51,156.89a.91.91,0,0,1-.61-1.59c3.13-2.86,9.35-7.94,15.71-9.81a.91.91,0,1,1,.52,1.75c-6,1.77-12,6.66-15,9.41A.93.93,0,0,1,27.51,156.89Z" transform="translate(0 -7.25)"/><path class="cls-6" d="M28.65,163a.91.91,0,0,1-.57-1.63,16.88,16.88,0,0,1,12.9-3,.91.91,0,1,1-.35,1.79,15.34,15.34,0,0,0-11.42,2.63A.89.89,0,0,1,28.65,163Zm-9.09-12.54a1,1,0,0,1-.41-.09.93.93,0,0,1-.41-1.23,14.79,14.79,0,0,0,1.42-9.44.92.92,0,0,1,1.8-.34A16.62,16.62,0,0,1,20.38,150,.92.92,0,0,1,19.56,150.45Z" transform="translate(0 -7.25)"/><path class="cls-3" d="M4.6,171.7l2,4.57L.91,179.09Z" transform="translate(0 -7.25)"/><path class="cls-5" d="M4.6,171.7l4-7.92,4.07,9.47-6.06,3Z" transform="translate(0 -7.25)"/><path class="cls-3" d="M12.49,155.86l6.19,14.37-6.06,3-4.07-9.47Z" transform="translate(0 -7.25)"/><path class="cls-5" d="M27.29,165.94l-8.61,4.29-6.19-14.37,1.57-3.15Z" transform="translate(0 -7.25)"/><path d="M29.59,167,13,150.41a.91.91,0,0,0-1.29,1.29l1.2,1.2L.1,178.68a.9.9,0,0,0,.17,1,.89.89,0,0,0,.64.27.86.86,0,0,0,.41-.1L7,177.09H7l20.13-10,1.2,1.2A.91.91,0,1,0,29.59,167Zm-20-3.15L12.43,158l5.06,11.77L13.08,172Zm1.89,9L7,175,5.6,171.73,8.48,166Zm-6.9,1.05.84,2L3,177.05ZM19.13,169l-5.63-13.1.81-1.62,11.43,11.43Z" transform="translate(0 -7.25)"/><path class="cls-7" d="M169.16,143.6l1.29,2.74a7.21,7.21,0,0,1-3.4,9.57,10.94,10.94,0,0,1-1.07.44,9.83,9.83,0,0,1-7.13-.31,10.18,10.18,0,0,1-5.16-5,4,4,0,0,1,1.89-5.28l8.46-4A3.84,3.84,0,0,1,169.16,143.6ZM140.27,153a4,4,0,0,1,5.27,1.88,10.22,10.22,0,0,1,.6,7.15,9.87,9.87,0,0,1-4.29,5.71,8.32,8.32,0,0,1-1,.56,7.21,7.21,0,0,1-9.55-3.45l-1.3-2.73a3.84,3.84,0,0,1,1.83-5.12Z" transform="translate(0 -7.25)"/><path class="cls-5" d="M171.41,142.54l1.31,2.77a9.65,9.65,0,0,1-4.6,12.85,12.63,12.63,0,0,1-15.69-4.06,2.09,2.09,0,0,0-3.72,1.76,12.65,12.65,0,0,1-6.81,14.71A9.66,9.66,0,0,1,129,166l-1.31-2.77a6.32,6.32,0,0,1,3-8.43L163,139.52A6.33,6.33,0,0,1,171.41,142.54Zm-1,3.8-1.29-2.74a3.84,3.84,0,0,0-5.12-1.83l-8.46,4a4,4,0,0,0-1.89,5.28,10.18,10.18,0,0,0,5.16,5,9.83,9.83,0,0,0,7.13.31,10.94,10.94,0,0,0,1.07-.44A7.21,7.21,0,0,0,170.45,146.34Zm-24.91,8.56a4,4,0,0,0-5.27-1.88l-8.46,4a3.84,3.84,0,0,0-1.83,5.12l1.3,2.73a7.21,7.21,0,0,0,9.55,3.45,8.32,8.32,0,0,0,1-.56,9.87,9.87,0,0,0,4.29-5.71A10.22,10.22,0,0,0,145.54,154.9Z" transform="translate(0 -7.25)"/><path d="M168.48,158.92a13.49,13.49,0,0,1-16.74-4.33,1.25,1.25,0,0,0-2.22,1,13.5,13.5,0,0,1-7.26,15.69,10.52,10.52,0,0,1-14-5L127,163.56a7.18,7.18,0,0,1,3.42-9.55l32.22-15.25a7.19,7.19,0,0,1,9.56,3.42l1.31,2.77a10.5,10.5,0,0,1-5,14Zm-19-6.25a2.87,2.87,0,0,1,3.64.94,11.81,11.81,0,0,0,14.65,3.79,8.81,8.81,0,0,0,4.2-11.73l-1.31-2.77a5.5,5.5,0,0,0-7.32-2.62l-32.22,15.25a5.49,5.49,0,0,0-2.62,7.31l1.31,2.77a8.82,8.82,0,0,0,11.74,4.2,11.8,11.8,0,0,0,6.36-13.73A2.86,2.86,0,0,1,149.47,152.67Z" transform="translate(0 -7.25)"/><path class="cls-5" d="M129.46,161l15.46-7.31.72,1.52-15.46,7.31Z" transform="translate(0 -7.25)"/><path class="cls-5" d="M131,164.25l15.08-7.13.72,1.52-15.09,7.13Z" transform="translate(0 -7.25)"/><path class="cls-5" d="M133.49,167.05l12.3-5.82.72,1.52-12.3,5.82Z" transform="translate(0 -7.25)"/><path class="cls-5" d="M153.14,149.79l15.46-7.31.72,1.51-15.46,7.32Z" transform="translate(0 -7.25)"/><path class="cls-5" d="M155.07,152.86l15.09-7.14.72,1.52-15.09,7.14Z" transform="translate(0 -7.25)"/><path class="cls-5" d="M158.43,155.25l12.31-5.82.72,1.52-12.31,5.82Z" transform="translate(0 -7.25)"/><path class="cls-3" d="M143.73,140.52a.84.84,0,0,1-1.12-.4l-2.16-4.56a.83.83,0,0,1,.4-1.11.84.84,0,0,1,1.12.4l2.16,4.55A.85.85,0,0,1,143.73,140.52ZM135,144.67a.87.87,0,0,1-.69,0L130.41,143a.84.84,0,1,1,.65-1.55l3.88,1.64a.85.85,0,0,1,0,1.54Zm17.51-8.29a.85.85,0,0,1-.59,0,.83.83,0,0,1-.57-1l1.19-4a.84.84,0,1,1,1.61.47l-1.19,4A.86.86,0,0,1,152.48,136.38Zm7.12,37.69a.84.84,0,0,1-1.12-.4l-2.15-4.55a.84.84,0,0,1,.4-1.12.83.83,0,0,1,1.11.4L160,173A.84.84,0,0,1,159.6,174.07ZM170.08,167a.83.83,0,0,1-.69,0l-3.87-1.63a.84.84,0,1,1,.65-1.55l3.87,1.64a.84.84,0,0,1,.45,1.1A.82.82,0,0,1,170.08,167ZM147.5,177.69a.83.83,0,0,1-.6.05.84.84,0,0,1-.57-1l1.19-4a.84.84,0,0,1,1.61.48l-1.19,4A.85.85,0,0,1,147.5,177.69Z" transform="translate(0 -7.25)"/><path d="M141.19,169.08a7.88,7.88,0,0,1-6.12.27,8,8,0,0,1-4.55-4.12l-1.3-2.74a4.69,4.69,0,0,1,2.23-6.23l8.46-4a4.8,4.8,0,0,1,6.39,2.28,11,11,0,0,1,.64,7.74,10.73,10.73,0,0,1-5.75,6.8Zm-9-11.3a3,3,0,0,0-1.43,4l1.3,2.73a6.38,6.38,0,0,0,8.43,3.05h0a8.54,8.54,0,0,0,.94-.51,9,9,0,0,0,3.92-5.23,9.35,9.35,0,0,0-.55-6.56,3.13,3.13,0,0,0-4.15-1.49l-8.46,4Zm35.24-1.11h0a9.07,9.07,0,0,1-1.16.47,10.67,10.67,0,0,1-7.74-.33,11,11,0,0,1-5.58-5.4,4.82,4.82,0,0,1,2.29-6.4l8.46-4a4.69,4.69,0,0,1,6.23,2.23l1.3,2.74a8,8,0,0,1,.3,6.13A7.91,7.91,0,0,1,167.41,156.67Zm-11.47-10.14a3.13,3.13,0,0,0-1.49,4.16,9.34,9.34,0,0,0,4.73,4.58,9,9,0,0,0,6.53.28,8.38,8.38,0,0,0,1-.4h0a6.37,6.37,0,0,0,3-8.45L168.4,144a3,3,0,0,0-4-1.43l-8.46,4Z" transform="translate(0 -7.25)"/></g><g id="Layer_1" data-name="Layer 1"><path class="cls-8" d="M122.37,94.17a4.74,4.74,0,1,0-4.74-4.75h0A4.75,4.75,0,0,0,122.37,94.17Z" transform="translate(0 -7.25)"/><path class="cls-9" d="M96.49,69.66a4.74,4.74,0,1,0-4.74-4.75h0A4.74,4.74,0,0,0,96.49,69.66Z" transform="translate(0 -7.25)"/><path class="cls-10" d="M65.05,57.43a4.73,4.73,0,1,0-4.73,4.73A4.74,4.74,0,0,0,65.05,57.43Z" transform="translate(0 -7.25)"/><path class="cls-11" d="M64.19,115.19a4.74,4.74,0,1,0,4.73,4.73h0A4.73,4.73,0,0,0,64.19,115.19Z" transform="translate(0 -7.25)"/><path class="cls-12" d="M142.25,40.62H39.36a6,6,0,0,0-6,6h0V149.51a6,6,0,0,0,6,6h52.4v-3.23L64.19,132.65h0a12.75,12.75,0,1,1,9.42-4.18l18.15,13.88v-34.6c-3.26-2-30.77-18.94-31.44-20.37S57,69.73,57,69.73h0a12.75,12.75,0,1,1,9.82-1.39h0s1,11.79,1.79,13.33,20.4,15,23.11,16.91V76.74a12.71,12.71,0,1,1,8.48.35v57.55l17.89-18.34V101.41a12.71,12.71,0,1,1,8,.16c.09,4.74.27,16.68,0,18.35-.36,2-23,24.73-25.89,27.67v7.91h42a6,6,0,0,0,6-6V46.63a6,6,0,0,0-6-6Z" transform="translate(0 -7.25)"/><rect class="cls-7" x="91.76" y="148.26" width="8.48" height="0.01"/></g><g id="Layer_3" data-name="Layer 3"><path class="cls-6" d="M47.07,46.59a1,1,0,0,1-1-1V43.91a1,1,0,0,1,2,0v1.66A1,1,0,0,1,47.07,46.59Zm0,6.5a1,1,0,0,1-1-1V50.42a1,1,0,1,1,2,0v1.65A1,1,0,0,1,47.07,53.09ZM51.15,49H49.5a1,1,0,0,1,0-2h1.65a1,1,0,0,1,0,2Zm-6.5,0H43a1,1,0,0,1,0-2h1.65a1,1,0,0,1,0,2Z" transform="translate(0 -7.25)"/><path class="cls-3" d="M49.81,94.27a2.86,2.86,0,1,1,2.85-2.85A2.86,2.86,0,0,1,49.81,94.27Zm0-3.67a.82.82,0,0,0-.82.82.82.82,0,0,0,1.64,0A.82.82,0,0,0,49.81,90.6Z" transform="translate(0 -7.25)"/><path class="cls-3" d="M89.47,84.67l-8.2,11.52L75.4,83.32Z" transform="translate(0 -7.25)"/><path class="cls-3" d="M54.75,58,48.88,70.88l-8.2-11.52Z" transform="translate(0 -7.25)"/><path class="cls-5" d="M73.14,52.79,70,66.59,59.63,57Z" transform="translate(0 -7.25)"/><path class="cls-5" d="M52.4,76.18,40.28,83.45,40,69.32Z" transform="translate(0 -7.25)"/><path class="cls-1" d="M70.52,82.29l-10.39,9.6L57,78.1Z" transform="translate(0 -7.25)"/><path class="cls-1" d="M90.11,44l-.24,14.14L77.75,50.88Z" transform="translate(0 -7.25)"/><path class="cls-5" d="M87.06,76.48a1,1,0,0,1-.72-.3,3,3,0,0,1-.91-2,1.15,1.15,0,0,0-.35-.82,1.06,1.06,0,0,0-.81-.34,3.13,3.13,0,0,1-2-.93,3.07,3.07,0,0,1-.92-2,1.12,1.12,0,0,0-.34-.82,1.15,1.15,0,0,0-.82-.35,3.18,3.18,0,0,1-2.9-2.91,1.1,1.1,0,0,0-.34-.82,1,1,0,1,1,1.45-1.43,3,3,0,0,1,.91,2,1.15,1.15,0,0,0,.35.82,1.06,1.06,0,0,0,.81.34,3.13,3.13,0,0,1,2,.93,3.07,3.07,0,0,1,.92,2,1.12,1.12,0,0,0,.34.82,1.15,1.15,0,0,0,.82.35,3.07,3.07,0,0,1,2,.92,3.12,3.12,0,0,1,.92,2,1.07,1.07,0,0,0,.34.82,1,1,0,0,1,0,1.45A1,1,0,0,1,87.06,76.48Z" transform="translate(0 -7.25)"/><path d="M34.32,61.23c1,0,2.85.09,4.28.09.73,0,1.47,0,2.2,0l7.25,10.18a1,1,0,0,0,.83.43H49a1,1,0,0,0,.83-.59L55,59.9q2.58-.45,5.15-1l9.17,8.47a1,1,0,0,0,.69.27,1,1,0,0,0,.3,0,1,1,0,0,0,.69-.75l2.76-12.17C75.39,54,77,53.3,78.6,52.58L89.35,59a1.07,1.07,0,0,0,.52.14,1,1,0,0,0,1-1l.21-12.5A24.07,24.07,0,0,0,96.4,42c.3-.33.57-.7.45-1-.2-.48-1.52-.36-1.74-.33-.69.06-2.38.4-4.22,2.72a1,1,0,0,0-.26-.23,1,1,0,0,0-1,0L77.25,50a1,1,0,0,0-.52.87.8.8,0,0,0,0,.31c-.9.4-1.81.79-2.73,1.16a.94.94,0,0,0-.21-.28,1,1,0,0,0-1-.23L59.33,56a1,1,0,0,0-.69.75,1.09,1.09,0,0,0,0,.36c-1,.21-1.93.41-2.9.59a.92.92,0,0,0-.14-.28,1,1,0,0,0-.93-.42L40.58,58.35a1,1,0,0,0-.83.59,1,1,0,0,0-.09.34c-1.74,0-4.09-.07-5.25-.09s-1,.41-1.07,1S33.33,61.27,34.32,61.23ZM89.06,45.76l-.18,10.61-9.1-5.46ZM71.75,54.29,69.41,64.64l-7.79-7.2ZM53.09,59.2l-4.41,9.65-6.15-8.64Z" transform="translate(0 -7.25)"/><path d="M91.76,84.31a2.15,2.15,0,0,1-1.36-.07,2,2,0,0,1-.83-.59L75.5,82.31a1,1,0,0,0-.93.42,1,1,0,0,0-.14.28c-1-.18-1.94-.38-2.9-.59a1,1,0,0,0,0-.35,1,1,0,0,0-.69-.75l-13.51-4.2a1,1,0,0,0-1,.23.94.94,0,0,0-.21.28c-.92-.37-1.83-.76-2.73-1.16a.8.8,0,0,0,0-.31,1,1,0,0,0-.52-.87L40.54,68.43a1,1,0,0,0-1,0,1,1,0,0,0-.26.23c-4.4-3.19-5.65-3.76-5.84-3.54a3.76,3.76,0,0,0-.06,1c0,.31,0,.54,0,.56,0,.6,2.34,2.32,5.69,4.27l.21,12.49a1,1,0,0,0,.52.88,1.11,1.11,0,0,0,.5.12,1,1,0,0,0,.52-.14l10.76-6.45c1.58.73,3.2,1.42,4.82,2.06l2.76,12.17a1,1,0,0,0,.69.75,1,1,0,0,0,.3,0,1.07,1.07,0,0,0,.7-.27L70,84.16q2.57.6,5.15,1l5.2,11.41a1,1,0,0,0,.84.59h.09a1,1,0,0,0,.83-.42L89.35,86.6l2.41,0M41.27,81.67l-.18-10.6,9.28,5.15Zm19.47,8.27L58.4,79.59l10.13,3.15Zm20.73,4.22-4.41-9.65,10.56,1Z" transform="translate(0 -7.25)"/></g></svg>