<svg xmlns="http://www.w3.org/2000/svg" x="0" y="0" viewBox="0 0 256 256" xml:space="preserve"><g id="Layer_1"><path fill="#878787" d="M201,248.086H55c-8.284,0-15-6.716-15-15v-210c0-8.284,6.716-15,15-15h146c8.284,0,15,6.716,15,15v210 C216,241.371,209.284,248.086,201,248.086z"/><path fill="#F0C020" d="M200,29.086v198c0,2.761-2.239,5-5,5H61c-2.761,0-5-2.239-5-5v-23h67c2.761,0,5-2.239,5-5v-46 c0-2.761-2.239-5-5-5H56v-119c0-2.761,2.239-5,5-5h134C197.761,24.086,200,26.325,200,29.086z"/><path fill="#F9E5AF" d="M191,225.586H81c-1.381,0-2.5-1.119-2.5-2.5s1.119-2.5,2.5-2.5h107.5v-187.5c0-1.381,1.119-2.5,2.5-2.5 s2.5,1.119,2.5,2.5v190C193.5,224.467,192.381,225.586,191,225.586z M71,225.586h-6c-1.381,0-2.5-1.119-2.5-2.5s1.119-2.5,2.5-2.5 h6c1.381,0,2.5,1.119,2.5,2.5S72.381,225.586,71,225.586z"/><path fill="#72C1E8" d="M128,153.086v46c0,2.761-2.239,5-5,5H40v-56h83C125.761,148.086,128,150.325,128,153.086z"/><path fill="#C5E5FE" d="M120,198.586H60c-1.381,0-2.5-1.119-2.5-2.5s1.119-2.5,2.5-2.5h57.5v-37.5c0-1.381,1.119-2.5,2.5-2.5 s2.5,1.119,2.5,2.5v40C122.5,197.467,121.381,198.586,120,198.586z M50,198.586h-2c-1.381,0-2.5-1.119-2.5-2.5s1.119-2.5,2.5-2.5 h2c1.381,0,2.5,1.119,2.5,2.5S51.381,198.586,50,198.586z"/><path fill="#13BF6D" d="M175,120.086H81c-2.761,0-5-2.239-5-5v-58c0-2.761,2.239-5,5-5h94c2.761,0,5,2.239,5,5v58 C180,117.848,177.761,120.086,175,120.086z"/><path fill="#76FFBB" d="M170,112.586h-70c-1.381,0-2.5-1.119-2.5-2.5s1.119-2.5,2.5-2.5h67.5v-45.5c0-1.381,1.119-2.5,2.5-2.5 s2.5,1.119,2.5,2.5v48C172.5,111.467,171.381,112.586,170,112.586z M90,112.586h-4c-1.381,0-2.5-1.119-2.5-2.5s1.119-2.5,2.5-2.5 h4c1.381,0,2.5,1.119,2.5,2.5S91.381,112.586,90,112.586z"/><circle cx="170" cy="172.086" r="14" fill="#FC5D3D"/><path fill="#EFEFEF" d="M120.465,99.086L112,90.622c-1.952-1.952-1.952-5.118,0-7.071l0,0c1.952-1.953,5.118-1.953,7.071,0 L124,88.479l14.929-14.929c1.953-1.953,5.119-1.952,7.071,0l0,0c1.952,1.953,1.952,5.118,0,7.071l-18.465,18.465 C125.583,101.039,122.417,101.039,120.465,99.086z"/><circle cx="76" cy="76.946" r="2.5"/><path d="M81 122.586h94c4.13 0 7.5-3.37 7.5-7.5v-58c0-4.13-3.37-7.5-7.5-7.5H81c-4.13 0-7.5 3.37-7.5 7.5v9.86c0 1.38 1.12 2.5 2.5 2.5s2.5-1.12 2.5-2.5c0-.01 0-.01 0-.02v-9.84c0-1.38 1.12-2.5 2.5-2.5h94c1.37 0 2.5 1.12 2.5 2.5v58c0 1.38-1.13 2.5-2.5 2.5H81c-1.38 0-2.5-1.12-2.5-2.5v-28.14c0-1.38-1.12-2.5-2.5-2.5s-2.5 1.12-2.5 2.5v28.14C73.5 119.216 76.87 122.586 81 122.586zM68 161.586c-1.381 0-2.5 1.119-2.5 2.5v4c0 1.381 1.119 2.5 2.5 2.5s2.5-1.119 2.5-2.5v-4C70.5 162.705 69.381 161.586 68 161.586zM77.6 161.586c-1.381 0-2.5 1.119-2.5 2.5v4c0 1.381 1.119 2.5 2.5 2.5s2.5-1.119 2.5-2.5v-4C80.1 162.705 78.98 161.586 77.6 161.586zM87.2 161.586c-1.381 0-2.5 1.119-2.5 2.5v4c0 1.381 1.119 2.5 2.5 2.5s2.5-1.119 2.5-2.5v-4C89.7 162.705 88.581 161.586 87.2 161.586zM96.8 161.586c-1.381 0-2.5 1.119-2.5 2.5v4c0 1.381 1.119 2.5 2.5 2.5s2.5-1.119 2.5-2.5v-4C99.3 162.705 98.181 161.586 96.8 161.586zM106.4 161.586c-1.381 0-2.5 1.119-2.5 2.5v4c0 1.381 1.119 2.5 2.5 2.5s2.5-1.119 2.5-2.5v-4C108.9 162.705 107.781 161.586 106.4 161.586zM68 181.586c-1.381 0-2.5 1.119-2.5 2.5v4c0 1.381 1.119 2.5 2.5 2.5s2.5-1.119 2.5-2.5v-4C70.5 182.705 69.381 181.586 68 181.586zM77.6 181.586c-1.381 0-2.5 1.119-2.5 2.5v4c0 1.381 1.119 2.5 2.5 2.5s2.5-1.119 2.5-2.5v-4C80.1 182.705 78.98 181.586 77.6 181.586zM87.2 181.586c-1.381 0-2.5 1.119-2.5 2.5v4c0 1.381 1.119 2.5 2.5 2.5s2.5-1.119 2.5-2.5v-4C89.7 182.705 88.581 181.586 87.2 181.586zM96.8 181.586c-1.381 0-2.5 1.119-2.5 2.5v4c0 1.381 1.119 2.5 2.5 2.5s2.5-1.119 2.5-2.5v-4C99.3 182.705 98.181 181.586 96.8 181.586zM106.4 181.586c-1.381 0-2.5 1.119-2.5 2.5v4c0 1.381 1.119 2.5 2.5 2.5s2.5-1.119 2.5-2.5v-4C108.9 182.705 107.781 181.586 106.4 181.586zM140 161.586c-1.381 0-2.5 1.119-2.5 2.5v4c0 1.381 1.119 2.5 2.5 2.5s2.5-1.119 2.5-2.5v-4C142.5 162.705 141.381 161.586 140 161.586zM140 181.586c-1.381 0-2.5 1.119-2.5 2.5v4c0 1.381 1.119 2.5 2.5 2.5s2.5-1.119 2.5-2.5v-4C142.5 182.705 141.381 181.586 140 181.586zM101 41.586h60c1.381 0 2.5-1.119 2.5-2.5s-1.119-2.5-2.5-2.5h-60c-1.381 0-2.5 1.119-2.5 2.5S99.619 41.586 101 41.586zM116 211.586H68c-1.381 0-2.5 1.119-2.5 2.5s1.119 2.5 2.5 2.5h48c1.381 0 2.5-1.119 2.5-2.5S117.381 211.586 116 211.586zM116 135.586H68c-1.381 0-2.5 1.119-2.5 2.5s1.119 2.5 2.5 2.5h48c1.381 0 2.5-1.119 2.5-2.5S117.381 135.586 116 135.586zM170 155.586c-9.098 0-16.5 7.402-16.5 16.5s7.402 16.5 16.5 16.5 16.5-7.402 16.5-16.5S179.098 155.586 170 155.586zM170 183.586c-6.341 0-11.5-5.159-11.5-11.5 0-5.482 3.859-10.073 9-11.218v7.218c0 1.381 1.119 2.5 2.5 2.5s2.5-1.119 2.5-2.5v-7.218c5.141 1.146 9 5.736 9 11.218C181.5 178.427 176.341 183.586 170 183.586zM216 137.876c-1.38 0-2.5 1.12-2.5 2.5 0 1.37 1.12 2.49 2.5 2.49s2.5-1.12 2.5-2.49C218.5 138.996 217.38 137.876 216 137.876z"/><path d="M216,147.876c-1.38,0-2.5,1.12-2.5,2.49v82.72c-0.01,6.88-5.62,12.49-12.5,12.5H55c-6.88-0.01-12.49-5.62-12.5-12.5 v-26.5h11v20.5c0,4.136,3.364,7.5,7.5,7.5h134c4.136,0,7.5-3.364,7.5-7.5v-198c0-4.136-3.364-7.5-7.5-7.5H61 c-4.136,0-7.5,3.364-7.5,7.5v116.5h-11v-72.93c0-1.38-1.12-2.5-2.5-2.5s-2.5,1.12-2.5,2.5c0,5.159,0,150.177,0,160.43 c0,9.65,7.85,17.5,17.5,17.5h146c9.649,0,17.5-7.85,17.5-17.5v-82.72C218.5,148.996,217.38,147.876,216,147.876z M58.5,29.086 c0-1.378,1.121-2.5,2.5-2.5h134c1.379,0,2.5,1.122,2.5,2.5v198c0,1.378-1.121,2.5-2.5,2.5H61c-1.379,0-2.5-1.122-2.5-2.5v-20.5 H123c4.136,0,7.5-3.364,7.5-7.5v-46c0-4.136-3.364-7.5-7.5-7.5H58.5V29.086z M42.5,150.586c9.293,0,71.065,0,80.5,0 c1.379,0,2.5,1.122,2.5,2.5v46c0,1.378-1.121,2.5-2.5,2.5c-9.437,0-71.204,0-80.5,0V150.586z"/><path d="M201,5.586H55c-9.65,0-17.5,7.85-17.5,17.5v29.57c0,1.38,1.12,2.5,2.5,2.5s2.5-1.12,2.5-2.5v-0.01v-29.56 c0.01-6.88,5.62-12.49,12.5-12.5h146c6.88,0.01,12.49,5.62,12.5,12.5v107.29c0,1.37,1.12,2.5,2.5,2.5s2.5-1.13,2.5-2.5V23.086 C218.5,13.436,210.649,5.586,201,5.586z"/><circle cx="40" cy="62.656" r="2.5"/><path d="M129.303,100.854l18.465-18.465c2.924-2.923,2.924-7.681,0.001-10.605c-2.931-2.932-7.674-2.933-10.607-0.001L124,84.944 l-3.161-3.161c-2.931-2.93-7.676-2.932-10.606,0.001c-2.924,2.924-2.924,7.682,0,10.605l8.465,8.465 C121.628,103.785,126.373,103.785,129.303,100.854z M113.769,85.318c0.977-0.977,2.557-0.976,3.535,0l4.929,4.929 c0.977,0.977,2.559,0.977,3.535,0l14.929-14.928c0.976-0.975,2.556-0.979,3.536,0c0.975,0.975,0.975,2.561,0,3.535 l-18.465,18.465c-0.945,0.944-2.59,0.944-3.535,0l-8.465-8.465C112.793,87.879,112.793,86.293,113.769,85.318z"/></g></svg>