<svg xmlns="http://www.w3.org/2000/svg" x="0" y="0" viewBox="0 0 256 256" xml:space="preserve"><g id="Layer_1"><path fill="#72C1E8" d="M120.319,102.086v132c0,5.52-4.48,10-10,10h-92c-5.52,0-10-4.48-10-10v-132c0-5.52,4.48-10,10-10h92 C115.839,92.086,120.319,96.566,120.319,102.086z"/><path fill="#72C1E8" d="M212.54 133.387 234.389 155.235 163.659 225.956 141.849 204.086z"/><path fill="#C5E5FE" d="M110.319,238.586H34.461c-1.381,0-2.5-1.119-2.5-2.5s1.119-2.5,2.5-2.5h75.358v-131.5 c0-1.381,1.119-2.5,2.5-2.5s2.5,1.119,2.5,2.5v132C114.819,236.568,112.8,238.586,110.319,238.586z M24.461,238.586h-6.142 c-1.381,0-2.5-1.119-2.5-2.5s1.119-2.5,2.5-2.5h6.142c1.381,0,2.5,1.119,2.5,2.5S25.842,238.586,24.461,238.586z"/><path fill="#F2E1D7" d="M232.323,44.086v76.27l-0.02,0.01c-3.32-0.78-6.91,0.17-9.39,2.65l-6.59,6.59l-74.47,74.48l-4.93,16 h-16.6v-118c0-5.523-4.477-10-10-10h-30v-75c0-2.761,2.239-5,5-5h115L232.323,44.086z"/><path fill="#FC5D3D" d="M244.759,144.856l-10.37,10.378l-21.848-21.848l10.368-10.37c2.48-2.48,6.07-3.43,9.39-2.65 c1.73,0.4,3.38,1.27,4.76,2.65l7.7,7.7C248.669,134.626,248.659,140.956,244.759,144.856z"/><path fill="#D6C0B3" d="M125.319,102.086v118h-5v-118c0-5.52-4.48-10-10-10h-30v-5h30 C118.589,87.086,125.319,93.816,125.319,102.086z"/><path fill="#EFEFEF" d="M216.319,60.086v69.52l-74.47,74.48h-21.53v-102c0-5.52-4.48-10-10-10h-14v-32H216.319z"/><path fill="#AFAFAF" d="M125.319,102.086v102h-5v-102c0-5.52-4.48-10-10-10h-14v-5h14 C118.589,87.086,125.319,93.816,125.319,102.086z"/><path fill="#13BF6D" d="M96.319 60.086H216.31900000000002V76.086H96.319z"/><path fill="#F2E1D7" d="M232.319,157.296v57.79c0,2.76-2.24,5-5,5h-57.79L232.319,157.296z"/><path fill="#D6C0B3" d="M232.319 157.296 232.319 164.306 176.529 220.086 169.529 220.086z"/><path fill="#D6C0B3" d="M232.319,44.086h-27c-2.761,0-5-2.239-5-5v-27L232.319,44.086z"/><path fill="#EFEFEF" d="M216.319 173.296 216.319 204.086 185.529 204.086z"/><path fill="#AFAFAF" d="M216.319 173.296 216.319 180.306 192.529 204.086 185.529 204.086z"/><path fill="#F0C020" d="M99.319,132.086h-70c-2.761,0-5-2.239-5-5v-14c0-2.761,2.239-5,5-5h70c2.761,0,5,2.239,5,5v14 C104.319,129.848,102.08,132.086,99.319,132.086z"/><circle cx="32.319" cy="156.086" r="8" fill="#EFEFEF"/><circle cx="64.319" cy="156.086" r="8" fill="#EFEFEF"/><circle cx="96.319" cy="156.086" r="8" fill="#EFEFEF"/><circle cx="32.319" cy="188.086" r="8" fill="#EFEFEF"/><circle cx="64.319" cy="188.086" r="8" fill="#EFEFEF"/><circle cx="96.319" cy="188.086" r="8" fill="#EFEFEF"/><circle cx="32.319" cy="220.086" r="8" fill="#EFEFEF"/><circle cx="64.319" cy="220.086" r="8" fill="#EFEFEF"/><circle cx="96.319" cy="220.086" r="8" fill="#EFEFEF"/><path fill="#C5E5FE" d="M162.256,216.364l-11.58-11.58c-0.977-0.976-0.977-2.559,0-3.535c0.976-0.977,2.56-0.977,3.535,0 l9.812,9.812l45.715-45.714c0.976-0.977,2.56-0.977,3.535,0c0.977,0.976,0.977,2.559,0,3.535l-47.482,47.482 C164.815,217.341,163.232,217.341,162.256,216.364z M216.809,161.81c-0.977-0.976-0.977-2.559,0-3.535l4.243-4.243 c0.976-0.977,2.56-0.977,3.535,0c0.977,0.976,0.977,2.559,0,3.535l-4.243,4.243C219.368,162.786,217.784,162.786,216.809,161.81 z"/><path fill="#F0C020" d="M163.659 225.956 149.929 230.186 137.609 217.856 141.849 204.086z"/><path fill="#878787" d="M149.929 230.186 132.159 235.616 137.609 217.856z"/><path fill="#878787" d="M137.606 217.856 136.919 220.086 137.606 217.856z"/><path d="M96.319 30.586h48c1.381 0 2.5-1.119 2.5-2.5s-1.119-2.5-2.5-2.5h-48c-1.381 0-2.5 1.119-2.5 2.5S94.938 30.586 96.319 30.586zM93.819 44.086c0 1.381 1.119 2.5 2.5 2.5h80c1.381 0 2.5-1.119 2.5-2.5s-1.119-2.5-2.5-2.5h-80C94.938 41.586 93.819 42.705 93.819 44.086zM192.703 171.546c-1.023 1.045-.95 2.589 0 3.54.979.978 2.559.97 3.53 0 .938-.939 1.01-2.508 0-3.54C195.293 170.606 193.643 170.606 192.703 171.546zM29.323 134.586h70c4.13 0 7.49-3.37 7.49-7.5v-14c0-4.13-3.36-7.5-7.49-7.5h-33.72c-1.38 0-2.5 1.12-2.5 2.5 0 1.38 1.12 2.5 2.5 2.5h33.72c1.37 0 2.49 1.12 2.5 2.5v14c-.01 1.38-1.13 2.5-2.5 2.5h-70c-1.38 0-2.5-1.12-2.51-2.5v-14c.01-1.38 1.13-2.5 2.51-2.5h16.28c1.38 0 2.5-1.12 2.5-2.5 0-1.38-1.12-2.5-2.5-2.5h-16.28c-4.14 0-7.5 3.37-7.5 7.5v14C21.823 131.216 25.183 134.586 29.323 134.586z"/><circle cx="55.603" cy="108.086" r="2.5"/><path d="M32.319 145.586c-5.79 0-10.5 4.71-10.5 10.5s4.71 10.5 10.5 10.5 10.5-4.71 10.5-10.5S38.108 145.586 32.319 145.586zM32.319 161.586c-3.033 0-5.5-2.467-5.5-5.5s2.467-5.5 5.5-5.5 5.5 2.467 5.5 5.5S35.351 161.586 32.319 161.586zM64.319 145.586c-5.79 0-10.5 4.71-10.5 10.5s4.71 10.5 10.5 10.5 10.5-4.71 10.5-10.5S70.108 145.586 64.319 145.586zM64.319 161.586c-3.033 0-5.5-2.467-5.5-5.5s2.467-5.5 5.5-5.5 5.5 2.467 5.5 5.5S67.351 161.586 64.319 161.586zM96.319 145.586c-5.79 0-10.5 4.71-10.5 10.5s4.71 10.5 10.5 10.5 10.5-4.71 10.5-10.5S102.108 145.586 96.319 145.586zM96.319 161.586c-3.033 0-5.5-2.467-5.5-5.5s2.467-5.5 5.5-5.5 5.5 2.467 5.5 5.5S99.351 161.586 96.319 161.586zM32.319 177.586c-5.79 0-10.5 4.71-10.5 10.5s4.71 10.5 10.5 10.5 10.5-4.71 10.5-10.5S38.108 177.586 32.319 177.586zM32.319 193.586c-3.033 0-5.5-2.467-5.5-5.5s2.467-5.5 5.5-5.5 5.5 2.467 5.5 5.5S35.351 193.586 32.319 193.586zM64.319 177.586c-5.79 0-10.5 4.71-10.5 10.5s4.71 10.5 10.5 10.5 10.5-4.71 10.5-10.5S70.108 177.586 64.319 177.586zM64.319 193.586c-3.033 0-5.5-2.467-5.5-5.5s2.467-5.5 5.5-5.5 5.5 2.467 5.5 5.5S67.351 193.586 64.319 193.586zM96.319 177.586c-5.79 0-10.5 4.71-10.5 10.5s4.71 10.5 10.5 10.5 10.5-4.71 10.5-10.5S102.108 177.586 96.319 177.586zM96.319 193.586c-3.033 0-5.5-2.467-5.5-5.5s2.467-5.5 5.5-5.5 5.5 2.467 5.5 5.5S99.351 193.586 96.319 193.586zM32.319 209.586c-5.79 0-10.5 4.71-10.5 10.5s4.71 10.5 10.5 10.5 10.5-4.71 10.5-10.5S38.108 209.586 32.319 209.586zM32.319 225.586c-3.033 0-5.5-2.467-5.5-5.5s2.467-5.5 5.5-5.5 5.5 2.467 5.5 5.5S35.351 225.586 32.319 225.586zM64.319 209.586c-5.79 0-10.5 4.71-10.5 10.5s4.71 10.5 10.5 10.5 10.5-4.71 10.5-10.5S70.108 209.586 64.319 209.586zM64.319 225.586c-3.033 0-5.5-2.467-5.5-5.5s2.467-5.5 5.5-5.5 5.5 2.467 5.5 5.5S67.351 225.586 64.319 225.586zM96.319 209.586c-5.79 0-10.5 4.71-10.5 10.5s4.71 10.5 10.5 10.5 10.5-4.71 10.5-10.5S102.108 209.586 96.319 209.586zM96.319 225.586c-3.033 0-5.5-2.467-5.5-5.5s2.467-5.5 5.5-5.5 5.5 2.467 5.5 5.5S99.351 225.586 96.319 225.586zM46.086 52.495c4.55-4.549 11.914-4.55 16.464 0 .977.977 2.56.976 3.536 0 .977-.977.977-2.56 0-3.536-6.504-6.504-17.031-6.505-23.536 0-4.55 4.55-11.913 4.55-16.464 0-.976-.977-2.56-.977-3.535 0-.977.976-.977 2.559 0 3.535C29.054 58.999 39.582 59 46.086 52.495zM46.086 69.201c4.541-4.54 11.926-4.539 16.465 0 .976.977 2.56.977 3.535 0 .977-.976.977-2.559 0-3.535-6.488-6.489-17.046-6.49-23.536 0-4.55 4.55-11.913 4.55-16.464 0-.976-.977-2.56-.977-3.535 0-.977.976-.977 2.559 0 3.535C29.054 75.704 39.582 75.706 46.086 69.201z"/><circle cx="172.463" cy="12.086" r="2.5"/><path d="M246.527,128.949l-7.7-7.7c-1.159-1.159-2.523-2.063-4.008-2.682v-74.48c0-0.684-0.311-1.347-0.735-1.77l-31.997-31.997 c-0.413-0.416-1.087-0.732-1.773-0.732h-17.85c-1.38,0-2.5,1.12-2.5,2.5c0,1.38,1.12,2.5,2.5,2.5h15.355v24.5 c0,4.136,3.364,7.5,7.5,7.5h24.5v71.026c-3.222,0.052-6.372,1.331-8.678,3.636l-2.322,2.323V60.086c0-1.381-1.119-2.5-2.5-2.5 h-120c-1.381,0-2.5,1.119-2.5,2.5v29.5H82.813v-72.5c0.01-1.37,1.13-2.5,2.51-2.5h77.14c1.38,0,2.5-1.12,2.5-2.5 c0-1.38-1.12-2.5-2.5-2.5h-77.14c-4.14,0-7.5,3.37-7.5,7.5v72.5H18.319c-6.893,0-12.5,5.607-12.5,12.5v132 c0,6.893,5.607,12.5,12.5,12.5h92c6.893,0,12.5-5.607,12.5-12.5v-11.5h10.724l-3.774,12.298 c-0.591,1.927,1.224,3.705,3.121,3.123c23.777-7.266,13.736-4.187,31.505-9.662c0.323-0.099,0.746-0.335,1.032-0.622 l5.138-5.138h56.754c4.136,0,7.5-3.364,7.5-7.5V158.34c1.649-1.649-0.162,0.163,11.708-11.716 C251.4,141.751,251.4,133.822,246.527,128.949z M205.319,41.586c-1.378,0-2.5-1.122-2.5-2.5V18.122l23.464,23.464H205.319z M167.764,218.316c-0.001,0.001-0.003,0.003-0.004,0.004l-4.098,4.097l-7.37-7.39l32.871-32.872c0.98-0.98,0.98-2.56,0-3.53 c-0.94-0.95-2.59-0.95-3.53,0l-32.872,32.862l-7.379-7.4c6.899-6.9,60.282-60.289,67.158-67.166l7.393,7.393l-20.16,20.16 c-0.98,0.98-0.98,2.56,0,3.54c0.964,0.965,2.548,0.981,3.53,0l20.165-20.165l7.383,7.384 C228.956,157.13,170.208,215.873,167.764,218.316z M202.569,190.586h11.25v11h-22.251L202.569,190.586z M213.819,185.586h-6.249 l6.249-6.249V185.586z M122.819,201.586v-11h11v11H122.819z M173.819,78.586v11h-35v-11H173.819z M138.819,73.586v-11h35v11 H138.819z M204.806,137.586h-25.987v-11h35v1.986C210.09,132.301,205.323,137.069,204.806,137.586z M156.811,185.586h-17.993 v-11h28.991L156.811,185.586z M213.819,110.586v11h-35v-11H213.819z M178.819,105.586v-11h35v11H178.819z M173.819,121.586h-35 v-11h35V121.586z M172.809,169.586h-33.991v-11h35v9.991L172.809,169.586z M133.819,142.586v11h-11v-11H133.819z M122.819,137.586v-11h11v11H122.819z M133.819,158.586v11h-11v-11H133.819z M138.819,153.586v-11h35v11H138.819z M138.819,137.586v-11h35v11H138.819z M133.819,121.586h-11v-11h11V121.586z M122.819,174.586h11v11h-11V174.586z M178.819,158.586h4.99l-4.99,4.99V158.586z M188.807,153.586h-9.989v-11h20.988L188.807,153.586z M213.819,89.586h-35v-11h35 V89.586z M173.819,94.586v11h-35v-11H173.819z M133.819,105.586h-11v-3.5c0-2.816-0.947-5.408-2.524-7.5h13.524V105.586z M138.819,190.586h12.993l-10.999,11h-1.995V190.586z M213.819,73.586h-35v-11h35V73.586z M133.819,62.586v11h-35v-11H133.819z M98.819,78.586h35v11c-13.275,0-22.648,0-35,0V78.586z M117.819,234.086c0,4.136-3.364,7.5-7.5,7.5h-92 c-4.136,0-7.5-3.364-7.5-7.5v-132c0-4.136,3.364-7.5,7.5-7.5h92c4.136,0,7.5,3.364,7.5,7.5V234.086z M122.819,217.586v-11 h15.645c-3.521,11.433-3.099,10.062-3.387,11H122.819z M138.775,222.561l6.445,6.45l-9.292,2.84L138.775,222.561z M150.633,227.354l-10.192-10.2l2.574-8.358c2.679,2.687,1.475,1.479,15.948,15.992L150.633,227.354z M229.819,215.086 c0,1.378-1.122,2.5-2.5,2.5h-51.753l11.001-11h29.752c1.381,0,2.5-1.119,2.5-2.5v-29.748l11-10.999V215.086z M242.99,143.089 l-8.603,8.609l-18.312-18.312l8.601-8.603c2.812-2.81,7.607-3.007,10.615,0l7.7,7.7 C245.915,135.408,245.915,140.165,242.99,143.089z"/></g></svg>