<svg xmlns="http://www.w3.org/2000/svg" id="Filled_ex" width="64" height="64" data-name="Filled ex" viewBox="0 0 64 64"><path fill="#39a9db" d="M5,7H39a4,4,0,0,1,4,4V41a0,0,0,0,1,0,0H1a0,0,0,0,1,0,0V11A4,4,0,0,1,5,7Z"/><path fill="#fcb641" d="M54.143 9 43 9 43 15 56 15 54.143 9z"/><path fill="#e65039" d="M1 34H63V47H1z"/><circle cx="15" cy="50" r="2" fill="#ad3c2b"/><path fill="#f0ab1e" d="M61,38h2a0,0,0,0,1,0,0v5a0,0,0,0,1,0,0H61a2,2,0,0,1-2-2V40A2,2,0,0,1,61,38Z"/><path fill="#c0e4f4" d="M63 34 43 34 43 21 60 21 63 34z"/><path fill="#e65039" d="M60,21H43V17a2,2,0,0,1,2-2H56.558a2,2,0,0,1,1.9,1.368Z"/><path d="M47 37H51V39H47z"/><circle cx="15" cy="50" r="7" fill="#606c83"/><circle cx="15" cy="50" r="2" fill="#fff"/><path d="M15,53a3,3,0,0,1-.019-6H15a3,3,0,0,1,.019,6Zm0-4h-.006A1,1,0,0,0,15,51h.006A1,1,0,0,0,15,49Z"/><circle cx="49" cy="50" r="7" fill="#606c83"/><circle cx="49" cy="50" r="2" fill="#fff"/><path d="M49,53a3,3,0,0,1-.019-6H49a3,3,0,0,1,.019,6Zm0-4h-.006A1,1,0,0,0,49,51h.006A1,1,0,0,0,49,49Z"/><path fill="#e65039" d="M43,25h4a2,2,0,0,1,2,2v7a0,0,0,0,1,0,0H43a0,0,0,0,1,0,0V25A0,0,0,0,1,43,25Z"/><path d="M56 24.012H58V25.989H56z"/><path d="M52 24.012H54V25.989H52z"/><g><path d="M64,33.957v-.009l0-.035,0-.018,0-.03,0-.025,0-.025-.006-.028,0-.012-3-13-.005-.016c0-.017-.009-.034-.014-.051l-.007-.022v0l-1.544-4.633A3,3,0,0,0,56.71,14l-1.316-3.949a2.985,2.985,0,0,0-2.835-2.043h-9.1a3.99,3.99,0,0,0-3.457-2H4A3.993,3.993,0,0,0,.012,10V45A2.991,2.991,0,0,0,3,47.988H6V46.012H3A1.013,1.013,0,0,1,1.988,45V34.988H7V33.012H1.988V10A2.015,2.015,0,0,1,4,7.988H40A2.015,2.015,0,0,1,42.012,10v2h1.976V10L46,10v1h2V9.995l2,0V11h2V9.989h.559a1.013,1.013,0,0,1,.96.692L54.625,14H45a3,3,0,0,0-3,3V33.012H38v1.976h4V42h2V35H62v2.012H61A2.991,2.991,0,0,0,58.012,40v1A2.991,2.991,0,0,0,61,43.988h1V45a1,1,0,0,1-1,1H58v2h3a3,3,0,0,0,3-3V34C64,33.988,64,33.973,64,33.957ZM57.507,16.684,58.613,20H44V17a1,1,0,0,1,1-1H56.559A1,1,0,0,1,57.507,16.684ZM48.012,33H44V25.988h3A1.013,1.013,0,0,1,48.012,27Zm1.976,0V27A2.991,2.991,0,0,0,47,24.012H44V22h15.2l2.538,11ZM61,42.012A1.013,1.013,0,0,1,59.988,41V40A1.013,1.013,0,0,1,61,38.988h1v3.024Z"/><path d="M58,56.012H54.273A8,8,0,0,0,49,42h-.051a8.005,8.005,0,0,0-6.882,4.012H22v.118A8.006,8.006,0,0,0,15,42h-.051A8,8,0,0,0,9.728,56.012H2v1.976H14.568Q14.783,58,15,58h.051c.128,0,.255-.005.382-.012H24V56.012H20.273a8,8,0,0,0,2.471-8.024H41.257a7.991,7.991,0,0,0,2.471,8.024H34v1.976H48.568Q48.783,58,49,58h.051c.128,0,.255-.005.382-.012H58ZM15.038,56H15a6,6,0,0,1-.038-12H15a6,6,0,0,1,.038,12ZM43,50.038A6.007,6.007,0,0,1,48.962,44H49a6,6,0,0,1,.038,12H49A6.007,6.007,0,0,1,43,50.038Z"/></g><rect width="25" height="24" x="10" y="13" fill="#fcb641" rx="2" ry="2"/><path d="M21 33H15a1 1 0 0 1-1-1V26a2 2 0 0 1 2-2h3V19H14V17h6a1 1 0 0 1 1 1v7a1 1 0 0 1-1 1H16v5h5zM29 17v7H25V17H23v7a2 2 0 0 0 2 2h4v7h2V17zM35 26a1 1 0 0 1-.707-.293l-2-2 1.414-1.414L35 23.586l1.293-1.293 1.414 1.414-2 2A1 1 0 0 1 35 26zM11.293 25.707 10 24.414 8.707 25.707 7.293 24.293l2-2a1 1 0 0 1 1.414 0l2 2z"/><path d="M36 21H34V15a1 1 0 0 0-1-1H12a1 1 0 0 0-1 1v5H9V15a3 3 0 0 1 3-3H33a3 3 0 0 1 3 3zM33 38H12a3 3 0 0 1-3-3V27h2v8a1 1 0 0 0 1 1H33a1 1 0 0 0 1-1V28h2v7A3 3 0 0 1 33 38z"/><path d="M30 56.012H32V57.989H30z"/><path d="M26 56.012H28V57.989H26z"/></svg>